<mxfile host="app.diagrams.net" modified="2021-01-25T03:25:38.099Z" agent="5.0 (Macintosh; Intel Mac OS X 10_15_5) AppleWebKit/605.1.15 (KHTML, like Gecko) Version/13.1.1 Safari/605.1.15" etag="8YWcOMvsd7Rz3kF770Pd" version="14.2.6" type="github">
  <diagram name="Page-1" id="9361dd3d-8414-5efd-6122-117bd74ce7a7">
    <mxGraphModel dx="940" dy="671" grid="1" gridSize="10" guides="1" tooltips="1" connect="1" arrows="1" fold="1" page="0" pageScale="1.5" pageWidth="826" pageHeight="1169" background="#ffffff" math="0" shadow="0">
      <root>
        <mxCell id="0" />
        <mxCell id="1" parent="0" />
        <mxCell id="69" value="" style="fillColor=#DEE8FF;strokeColor=none" parent="1" vertex="1">
          <mxGeometry x="10" y="10" width="950" height="500" as="geometry" />
        </mxCell>
        <mxCell id="2" value="" style="fillColor=#CC4125;strokeColor=#660000" parent="1" vertex="1">
          <mxGeometry x="200" y="150" width="10" height="130" as="geometry" />
        </mxCell>
        <mxCell id="3" value="注意执行接口的线程       &#xa;synchronized             &#xa;add()/flush()/schduler flush()" style="edgeStyle=none;verticalLabelPosition=top;verticalAlign=bottom;labelPosition=left;align=right;fontColor=#FF0000;" parent="1" edge="1">
          <mxGeometry width="100" height="100" as="geometry">
            <mxPoint x="20" y="149" as="sourcePoint" />
            <mxPoint x="200" y="149.5" as="targetPoint" />
            <mxPoint x="60" as="offset" />
          </mxGeometry>
        </mxCell>
        <mxCell id="4" value="BulkProcessor" style="shadow=1;fillColor=#A2C4C9;strokeColor=none" parent="1" vertex="1">
          <mxGeometry x="152.5" y="60" width="105" height="50" as="geometry" />
        </mxCell>
        <mxCell id="6" value="" style="fillColor=#CC4125;strokeColor=#660000" parent="1" vertex="1">
          <mxGeometry x="352.5" y="179.56" width="10" height="130.44" as="geometry" />
        </mxCell>
        <mxCell id="7" value="BulkRequestHandler" style="shadow=1;fillColor=#A2C4C9;strokeColor=none" parent="1" vertex="1">
          <mxGeometry x="295" y="60" width="125" height="50" as="geometry" />
        </mxCell>
        <mxCell id="8" value="" style="edgeStyle=none;endArrow=none;dashed=1" parent="1" source="7" target="6" edge="1">
          <mxGeometry x="272.3350694444445" y="165" width="100" height="100" as="geometry">
            <mxPoint x="347.2588734567901" y="110" as="sourcePoint" />
            <mxPoint x="347.5761959876544" y="165" as="targetPoint" />
          </mxGeometry>
        </mxCell>
        <mxCell id="21" value="" style="fillColor=#CC4125;strokeColor=#660000" parent="1" vertex="1">
          <mxGeometry x="797.5" y="280" width="10" height="210" as="geometry" />
        </mxCell>
        <mxCell id="22" value="Retry" style="shadow=1;fillColor=#A2C4C9;strokeColor=none" parent="1" vertex="1">
          <mxGeometry x="750" y="60" width="105" height="50" as="geometry" />
        </mxCell>
        <mxCell id="23" value="" style="edgeStyle=none;endArrow=none;dashed=1" parent="1" source="22" target="21" edge="1">
          <mxGeometry x="614.4878472222224" y="174.99999999999997" width="100" height="100" as="geometry">
            <mxPoint x="674.6527777777778" y="110" as="sourcePoint" />
            <mxPoint x="674.6527777777778" y="260" as="targetPoint" />
          </mxGeometry>
        </mxCell>
        <mxCell id="33" value="" style="edgeStyle=elbowEdgeStyle;elbow=horizontal;endArrow=none;dashed=1" parent="1" source="4" target="2" edge="1">
          <mxGeometry x="230.00000000000003" y="310" width="100" height="100" as="geometry">
            <mxPoint x="230.00000000000003" y="410" as="sourcePoint" />
            <mxPoint x="330" y="310" as="targetPoint" />
          </mxGeometry>
        </mxCell>
        <mxCell id="40" value=" - concurrentRequests控制着bulk并发数&#xa;&#xa;-Semaphore(concurrentRequests &gt; 0 ? concurrentRequests : 1);&#xa;&#xa; - CountDownLatch(1)控制是否阻塞等待bulk处理完毕&#xa;  if (concurrentRequests == 0) {&#xa;      latch.await();&#xa;  }" style="shape=note;align=left" parent="1" vertex="1">
          <mxGeometry x="380" y="120" width="350" height="120" as="geometry" />
        </mxCell>
        <mxCell id="41" value="" style="edgeStyle=none;endArrow=none;dashed=1" parent="1" source="40" edge="1">
          <mxGeometry x="1030" y="180" width="100" height="100" as="geometry">
            <mxPoint x="1030" y="280" as="sourcePoint" />
            <mxPoint x="360" y="180" as="targetPoint" />
          </mxGeometry>
        </mxCell>
        <mxCell id="52" value="" style="edgeStyle=none;endArrow=none;dashed=1;" parent="1" source="6" edge="1">
          <mxGeometry x="376.5711805555559" y="339.6971450617284" width="100" height="100" as="geometry">
            <mxPoint x="451.7361111111112" y="284.6971450617284" as="sourcePoint" />
            <mxPoint x="360" y="340" as="targetPoint" />
          </mxGeometry>
        </mxCell>
        <mxCell id="71" value="ES Rest Client BulkIndex" style="rounded=1;fontStyle=1;fillColor=#FFD966;strokeColor=none" parent="1" vertex="1">
          <mxGeometry x="50" y="20" width="150" height="30" as="geometry" />
        </mxCell>
        <mxCell id="MSCGjZI9HMd1GqQaS4Cn-92" value="execute()" style="edgeStyle=elbowEdgeStyle;elbow=vertical;verticalLabelPosition=top;verticalAlign=bottom;exitX=1;exitY=0.25;exitDx=0;exitDy=0;entryX=0.25;entryY=0;entryDx=0;entryDy=0;" parent="1" source="2" target="6" edge="1">
          <mxGeometry width="100" height="100" as="geometry">
            <mxPoint x="240.00395061728386" y="180.17000000000002" as="sourcePoint" />
            <mxPoint x="390.22" y="180.17000000000002" as="targetPoint" />
            <Array as="points">
              <mxPoint x="280" y="180" />
              <mxPoint x="310.22" y="180.17000000000002" />
            </Array>
            <mxPoint x="38" y="-11" as="offset" />
          </mxGeometry>
        </mxCell>
        <mxCell id="MSCGjZI9HMd1GqQaS4Cn-111" value="withBackoff()" style="edgeStyle=elbowEdgeStyle;elbow=vertical;verticalLabelPosition=top;verticalAlign=bottom;exitX=1;exitY=0.75;exitDx=0;exitDy=0;entryX=0;entryY=0;entryDx=0;entryDy=0;" parent="1" source="6" target="21" edge="1">
          <mxGeometry width="100" height="100" as="geometry">
            <mxPoint x="470" y="282.94" as="sourcePoint" />
            <mxPoint x="612.5" y="279.99999999999994" as="targetPoint" />
            <Array as="points">
              <mxPoint x="540" y="280.44" />
              <mxPoint x="570.22" y="280.61" />
            </Array>
            <mxPoint x="191" y="1" as="offset" />
          </mxGeometry>
        </mxCell>
        <mxCell id="MSCGjZI9HMd1GqQaS4Cn-112" value="execute()" style="edgeStyle=elbowEdgeStyle;elbow=vertical;verticalLabelPosition=top;verticalAlign=bottom;exitX=1;exitY=0.25;exitDx=0;exitDy=0;entryX=1;entryY=0.5;entryDx=0;entryDy=0;" parent="1" source="21" target="21" edge="1">
          <mxGeometry width="100" height="100" as="geometry">
            <mxPoint x="820" y="312.94" as="sourcePoint" />
            <mxPoint x="962.5" y="309.99999999999994" as="targetPoint" />
            <Array as="points">
              <mxPoint x="890" y="360" />
              <mxPoint x="920.22" y="310.61" />
            </Array>
            <mxPoint x="43" y="11" as="offset" />
          </mxGeometry>
        </mxCell>
        <mxCell id="Hd3c7HCv7juLDMUy-7w1-75" value="onResponse()&#xa;&#xa;scheduler retry()" style="edgeStyle=elbowEdgeStyle;elbow=vertical;verticalLabelPosition=top;verticalAlign=bottom;exitX=1;exitY=0.75;exitDx=0;exitDy=0;entryX=1;entryY=1;entryDx=0;entryDy=0;fontColor=#FF0000;" edge="1" parent="1" source="21" target="21">
          <mxGeometry width="100" height="100" as="geometry">
            <mxPoint x="817.5" y="342.5" as="sourcePoint" />
            <mxPoint x="817.5" y="395" as="targetPoint" />
            <Array as="points">
              <mxPoint x="910" y="470" />
              <mxPoint x="930.22" y="320.61" />
            </Array>
            <mxPoint x="53" y="16" as="offset" />
          </mxGeometry>
        </mxCell>
        <mxCell id="Hd3c7HCv7juLDMUy-7w1-76" value="scheduler只有1个core thread -- oops！卡死了！&#xa;&#xa;retry任务一直等待空闲线程才能执行，scheduler flush一直等待&#xa;retry任务之前完才释放线程。" style="shape=note;align=left" vertex="1" parent="1">
          <mxGeometry x="380" y="410" width="350" height="80" as="geometry" />
        </mxCell>
        <mxCell id="Hd3c7HCv7juLDMUy-7w1-77" value="" style="edgeStyle=none;endArrow=none;dashed=1;entryX=0;entryY=0;entryDx=350;entryDy=75;entryPerimeter=0;" edge="1" parent="1" target="Hd3c7HCv7juLDMUy-7w1-76">
          <mxGeometry x="1040" y="190" width="100" height="100" as="geometry">
            <mxPoint x="830" y="460" as="sourcePoint" />
            <mxPoint x="370" y="190" as="targetPoint" />
          </mxGeometry>
        </mxCell>
      </root>
    </mxGraphModel>
  </diagram>
</mxfile>
